<svg width="462" height="500" viewBox="0 0 462 500" fill="none" xmlns="http://www.w3.org/2000/svg">
<path d="M81.1858 65.476C78.8692 65.9289 76.7979 69.2462 75.0451 70.8077C68.8961 76.2856 63.2539 82.7639 58.0389 89.1352C42.2429 108.434 30.4135 129.084 19.7062 151.505C16.1507 158.951 13.8931 167.033 11.141 174.775C10.1692 177.508 10.1314 181.571 8.20909 183.772C8.37727 188.172 6.19357 193.492 5.15656 197.767C3.2168 205.765 2.04991 214.242 1.26789 222.426C-1.61933 252.643 0.387644 283.279 7.66733 312.731C13.138 334.864 22.3443 356.283 33.6467 376.044C37.2188 382.288 41.1499 388.556 45.3986 394.371C47.1667 396.79 50.4843 399.77 51.1954 402.702L61.9666 415.365L81.1858 434.995L97.9422 448.994L109.51 457.684C111.497 458.114 113.18 459.664 114.842 460.77C117.878 462.789 121.092 464.546 124.202 466.442C133.206 471.933 143.09 476.855 152.843 480.83C160.382 483.903 168.162 486.352 175.822 489.074C178.709 490.101 183.094 490.124 185.486 492.007C190.082 492.173 194.984 494.179 199.482 495.129C209.104 497.165 218.997 498.635 228.805 499.308C269.339 502.084 309.839 496.629 347.434 480.804C374.129 469.567 397.205 453.322 419.078 434.548C425.676 428.887 431.381 422.176 437.406 415.934C438.782 414.508 441.384 409.65 443.434 409.5C444.987 409.383 447.209 411.789 448.399 412.672C452.138 415.455 456.883 420.533 461.398 421.696L454.734 376.377L434.74 379.323L419.078 381.709L416.372 362.048L414.08 346.053L401.084 348.106L378.758 351.385L375.232 327.059L373.426 316.063L328.44 322.727C329.455 324.626 331.435 325.581 333.106 326.839L342.133 333.677C343.172 334.46 346.718 336.126 346.588 337.693C346.485 338.926 343.955 340.992 343.092 341.818C339.544 345.214 335.988 348.646 332.106 351.678C319.472 361.555 305.501 369.649 290.119 374.384C285.493 375.81 280.05 378.25 275.124 378.043C273.819 379.036 271.736 379.049 270.126 379.286C266.021 379.889 261.911 380.039 257.796 380.432C236.807 382.428 214.447 377.767 195.483 368.819C180.949 361.962 167.553 352.851 156.305 341.292C117.397 301.314 109.148 241.615 132.849 191.769C159.268 136.209 228.662 105.413 287.453 124.577C306.078 130.647 323.06 139.91 337.754 152.954C342.703 157.346 347.258 162.304 351.41 167.444C352.506 168.798 354.652 172.903 356.492 173.161C358.121 173.389 360.207 171.218 361.43 170.366C365.342 167.645 371.62 164.996 374.552 161.211C375.899 159.472 371.597 155.284 370.517 153.973C365.089 147.379 359.404 141.212 353.099 135.425C327.623 112.038 294.135 98.5145 259.796 96.1626C210.999 92.8206 162.48 113.916 131.277 151.447C125.066 158.919 119.218 167.148 114.727 175.774C112.831 179.415 110.97 183.078 109.253 186.8C108.382 188.691 108.011 190.939 106.511 192.436L104.179 201.1L103.512 200.766C103.346 204.06 101.769 207.623 100.809 210.763C99.0555 216.502 97.8146 223.141 97.2084 229.091C95.0088 250.688 96.6473 271.091 101.892 292.071C103.665 299.163 105.967 306.93 109.455 313.397C110.138 314.664 111.504 319.426 112.842 319.395L115.175 325.393C116.376 325.393 117.044 328.039 117.619 329.059C119.498 332.394 121.694 335.897 124.006 338.946C130.978 348.136 138.277 356.99 146.832 364.714C150.375 367.913 154.154 370.772 157.828 373.768C159.103 374.807 160.63 375.257 161.494 376.71L167.825 380.376L170.158 382.375C172.402 382.722 174.238 384.434 176.185 385.484C180.151 387.63 184.338 389.686 188.498 391.432C200.898 396.634 213.627 399.986 226.806 402.445C237.021 404.351 248.135 404.438 258.463 403.732C284.97 401.915 311.1 394.598 333.439 379.746C341.036 374.694 348.424 368.903 355.099 362.685C358.498 359.519 361.453 355.277 365.109 352.471C366.895 351.098 368.684 353.481 370.097 354.481C374.366 357.493 380.657 360.852 383.756 365.047L386.089 366.047C379.877 374.201 371.52 381.995 363.426 388.233C360.993 390.106 358.108 393.638 355.099 394.371C352.753 397.054 349.137 398.886 346.158 400.796C339.534 405.045 332.626 408.9 325.446 412.126C297.16 424.842 267.075 430.52 236.136 428.39C203.68 426.154 171.393 414.198 145.165 394.948C126.457 381.219 110.549 364.351 98.1388 344.72C65.6791 293.371 61.839 224.767 89.6478 170.472C100.03 150.202 113.853 131.945 130.742 116.631C160.733 89.4361 201.054 72.924 241.468 71.1539C259.175 70.3785 276.268 72.6454 293.452 76.5888C306.799 79.6518 319.56 84.7632 331.773 90.9129C336.318 93.2009 342.623 95.6867 346.101 99.4652C349.61 100.252 353.159 103.956 356.098 105.96C366.745 113.219 376.538 122.751 384.939 132.484C387.828 135.83 390.731 139.263 393.36 142.814C394.119 143.836 395.166 146.41 396.752 146.039C397.995 145.749 399.325 144.399 400.417 143.729C403.913 141.586 407.475 139.167 410.748 136.709C411.744 135.961 414.803 134.55 414.663 133.091C414.44 130.807 410.961 127.583 409.588 125.785C404.376 118.953 398.528 112.501 392.42 106.464C366.782 81.1184 335.878 64.3297 301.449 54.3679C291.445 51.4731 281.089 50.3109 270.792 49.1052C236.191 45.0539 198.925 50.6484 167.171 65.3861C156.284 70.4394 145.763 76.101 135.835 82.8632C132.192 85.3447 128.702 88.0225 125.177 90.66C123.789 91.6983 122.533 93.3385 120.84 93.8003C116.427 99.3876 109.823 103.555 104.906 108.787C93.0617 121.392 82.6167 135.076 74.0175 150.116C38.1206 212.899 39.904 292.515 76.8109 354.371C85.5888 369.083 96.426 383.155 108.855 394.981C113.712 399.603 118.755 404.052 123.98 408.254C126.765 410.489 130.153 412.322 132.503 415.031C135.358 415.671 138.475 418.69 140.89 420.343C145.39 423.422 150.371 426.094 155.162 428.684C169.199 436.271 184.443 441.739 199.815 445.891C219.413 451.183 241.19 453.379 261.462 451.99C267.683 451.563 273.921 450.743 280.122 449.927C283.007 449.547 286.232 448.567 289.12 448.687C291.387 446.944 296.29 446.895 299.116 446.285C305.094 444.992 310.941 442.829 316.777 441.013C331.847 436.331 346.508 428.52 359.764 420.05C371.127 412.789 382.137 403.825 391.697 394.315C394.706 391.322 397.748 388.217 400.527 385.011C401.53 383.858 403 381.275 404.473 380.766C406.009 380.232 408.568 383.098 409.735 383.901C414.66 387.283 419.148 391.902 424.41 394.704C422.664 398.123 419.411 400.866 416.886 403.705C409.405 412.126 401.001 419.866 392.183 426.861C354.755 456.558 310.606 472.973 263.141 476.362C220.434 479.414 174.335 469.501 137.445 447.124C106.975 428.64 80.3828 405.278 60.5601 375.377C12.9372 303.541 10.6464 207.731 54.9639 133.788C70.8138 107.343 91.8821 84.7106 116.565 66.3154C179.779 19.2032 267.548 10.015 339.467 41.455C354.102 47.854 368.131 55.4396 381.147 64.7619C385.769 68.0729 392.063 71.4764 395.419 76.1393C397.862 76.052 401.92 81.4866 403.75 83.0814C412.817 90.9816 420.691 100.185 428.352 109.462C430.205 111.702 431.871 114.115 433.63 116.46C434.167 117.178 434.763 118.789 435.74 119.015C437.229 119.359 439.622 116.79 440.738 116.016C445.35 112.814 450.035 109.431 454.734 106.463C451.958 100.2 446.18 94.7357 441.931 89.4387C429.845 74.3729 415.149 60.5506 399.474 49.2699C378.491 34.1673 356.012 21.5058 331.439 13.1846C277.424 -5.10646 218.107 -4.18485 164.493 14.8209C141.589 22.9402 119.544 34.5049 100.18 49.2632C95.3087 52.9757 90.3479 56.6328 85.851 60.8022C84.2415 62.2947 82.2252 63.4953 81.1858 65.476Z" fill="#D5E37D"/>
</svg>
